<svg width="20" height="20" viewBox="0 0 20 20" fill="none" xmlns="http://www.w3.org/2000/svg">
<g clip-path="url(#clip0_1_128)">
<path d="M19.3498 4.78583L16.8407 1.39583C16.5321 0.964446 16.1252 0.612808 15.6536 0.370064C15.182 0.12732 14.6594 0.000461434 14.129 1.46866e-06H5.87067C5.34286 -0.000493946 4.82248 0.124354 4.35236 0.364271C3.88223 0.604187 3.4758 0.952314 3.1665 1.38L0.612336 4.79417C0.196472 5.38058 -0.018293 6.0859 0.000184297 6.80456C0.0186616 7.52322 0.269388 8.21657 0.714836 8.78083L8.0415 19.0542C8.27499 19.3498 8.57259 19.5886 8.91183 19.7524C9.25107 19.9163 9.6231 20.0009 9.99984 20C10.383 19.9992 10.761 19.9106 11.1045 19.7408C11.4481 19.5711 11.7481 19.3247 11.9815 19.0208L19.2498 8.86167C19.7152 8.28916 19.9775 7.57841 19.9956 6.84082C20.0137 6.10323 19.7866 5.38048 19.3498 4.78583ZM15.4932 2.37583L18.0082 5.77417C18.0215 5.7925 18.0248 5.81417 18.0382 5.83333H13.9615L12.7715 1.66667H14.129C14.3965 1.6675 14.6599 1.7323 14.8972 1.85567C15.1345 1.97904 15.3388 2.15739 15.4932 2.37583ZM9.99984 15.9317L7.74984 7.5H12.2498L9.99984 15.9317ZM7.7715 5.83333L8.9615 1.66667H11.0382L12.2282 5.83333H7.7715ZM4.514 2.36417C4.66863 2.14866 4.87229 1.97302 5.10818 1.85174C5.34407 1.73046 5.60543 1.66702 5.87067 1.66667H7.22817L6.03817 5.83333H1.9315C1.94317 5.815 1.9465 5.7925 1.95984 5.775L4.514 2.36417ZM2.03984 7.77083C1.97967 7.68585 1.92803 7.59513 1.88567 7.5H6.0265L8.5215 16.8583L2.03984 7.77083ZM11.4757 16.8667L13.9757 7.5H18.1307C18.077 7.62439 18.009 7.74212 17.9282 7.85083L11.4757 16.8667Z" fill="#063468"/>
</g>
<defs>
<clipPath id="clip0_1_128">
<rect width="20" height="20" fill="white"/>
</clipPath>
</defs>
</svg>
