<svg width="24" height="24" viewBox="0 0 24 24" fill="none" xmlns="http://www.w3.org/2000/svg">
<path d="M23.9875 12.2245C23.9875 11.2413 23.9058 10.5238 23.7291 9.77966H12.2392V14.2176H18.9835C18.8476 15.3205 18.1133 16.9815 16.4816 18.0976L16.4587 18.2462L20.0916 20.9964L20.3433 21.0209C22.6548 18.9347 23.9875 15.8653 23.9875 12.2245Z" fill="#7D7D7D"/>
<path d="M12.239 23.9176C15.5431 23.9176 18.317 22.8545 20.3431 21.0209L16.4814 18.0976C15.448 18.8018 14.061 19.2934 12.239 19.2934C9.00279 19.2934 6.2561 17.2074 5.27698 14.324L5.13347 14.3359L1.35592 17.1927L1.30652 17.3269C3.31894 21.2334 7.4526 23.9176 12.239 23.9176Z" fill="#7D7D7D"/>
<path d="M5.27714 14.324C5.01879 13.58 4.86928 12.7826 4.86928 11.9589C4.86928 11.135 5.01879 10.3378 5.26355 9.59366L5.25671 9.43519L1.43182 6.53247L1.30668 6.59064C0.477262 8.21174 0.00134277 10.0322 0.00134277 11.9589C0.00134277 13.8855 0.477262 15.7059 1.30668 17.327L5.27714 14.324Z" fill="#7D7D7D"/>
<path d="M12.239 4.62403C14.5369 4.62403 16.087 5.59401 16.9709 6.40461L20.4247 3.10928C18.3035 1.1826 15.5431 0 12.239 0C7.4526 0 3.31894 2.68406 1.30652 6.59056L5.26339 9.59359C6.2561 6.7102 9.00279 4.62403 12.239 4.62403Z" fill="#7D7D7D"/>
</svg>
