<svg width="20" height="20" viewBox="0 0 20 20" fill="none" xmlns="http://www.w3.org/2000/svg">
<g clip-path="url(#clip0_1_134)">
<path d="M7.91667 9.16666C8.60703 9.16666 9.16667 8.60701 9.16667 7.91666C9.16667 7.2263 8.60703 6.66666 7.91667 6.66666C7.22632 6.66666 6.66667 7.2263 6.66667 7.91666C6.66667 8.60701 7.22632 9.16666 7.91667 9.16666Z" fill="#063468"/>
<path d="M15.4167 2.5C16.107 2.5 16.6667 1.94036 16.6667 1.25C16.6667 0.559644 16.107 0 15.4167 0C14.7263 0 14.1667 0.559644 14.1667 1.25C14.1667 1.94036 14.7263 2.5 15.4167 2.5Z" fill="#063468"/>
<path d="M17.9167 6.66666C18.607 6.66666 19.1667 6.10701 19.1667 5.41666C19.1667 4.7263 18.607 4.16666 17.9167 4.16666C17.2263 4.16666 16.6667 4.7263 16.6667 5.41666C16.6667 6.10701 17.2263 6.66666 17.9167 6.66666Z" fill="#063468"/>
<path d="M7.91667 13.3333C8.60703 13.3333 9.16667 12.7737 9.16667 12.0833C9.16667 11.393 8.60703 10.8333 7.91667 10.8333C7.22632 10.8333 6.66667 11.393 6.66667 12.0833C6.66667 12.7737 7.22632 13.3333 7.91667 13.3333Z" fill="#063468"/>
<path d="M12.0833 13.3333C12.7737 13.3333 13.3333 12.7737 13.3333 12.0833C13.3333 11.393 12.7737 10.8333 12.0833 10.8333C11.393 10.8333 10.8333 11.393 10.8333 12.0833C10.8333 12.7737 11.393 13.3333 12.0833 13.3333Z" fill="#063468"/>
<path d="M19.9525 9.045C19.934 8.85234 19.8491 8.67212 19.7122 8.53527C19.5754 8.39842 19.3952 8.31347 19.2025 8.295C17.2772 8.10951 15.4764 7.26007 14.1088 5.8923C12.7412 4.52454 11.892 2.72364 11.7067 0.798333C11.6882 0.605678 11.6032 0.42546 11.4664 0.288607C11.3295 0.151755 11.1493 0.0668038 10.9567 0.0483333C10.6408 0.0175 10.3225 0 10 0C8.02219 0 6.08879 0.58649 4.4443 1.6853C2.79981 2.78412 1.51809 4.3459 0.761209 6.17316C0.00433286 8.00043 -0.193701 10.0111 0.192152 11.9509C0.578004 13.8907 1.53041 15.6725 2.92894 17.0711C4.32746 18.4696 6.10929 19.422 8.0491 19.8078C9.98891 20.1937 11.9996 19.9957 13.8268 19.2388C15.6541 18.4819 17.2159 17.2002 18.3147 15.5557C19.4135 13.9112 20 11.9778 20 10C20 9.6775 19.9825 9.35917 19.9525 9.045ZM10 18.3333C7.78987 18.3333 5.67025 17.4554 4.10745 15.8926C2.54464 14.3298 1.66667 12.2101 1.66667 10C1.66667 7.78986 2.54464 5.67025 4.10745 4.10744C5.67025 2.54464 7.78987 1.66667 10 1.66667H10.1417C10.4887 3.71313 11.4636 5.60101 12.9313 7.06873C14.399 8.53645 16.2869 9.51134 18.3333 9.85833C18.3333 9.90583 18.3333 9.9525 18.3333 10C18.3309 12.2094 17.4522 14.3276 15.8899 15.8899C14.3276 17.4522 12.2094 18.3309 10 18.3333Z" fill="#063468"/>
</g>
<defs>
<clipPath id="clip0_1_134">
<rect width="20" height="20" fill="white"/>
</clipPath>
</defs>
</svg>
