<svg width="80" height="79" viewBox="0 0 80 79" fill="none" xmlns="http://www.w3.org/2000/svg">
<g clip-path="url(#clip0_1_401)">
<path d="M40 56.4281C49.3873 56.4281 56.9971 48.8134 56.9971 39.4203C56.9971 30.0271 49.3873 22.4125 40 22.4125C30.6127 22.4125 23.0028 30.0271 23.0028 39.4203C23.0028 48.8134 30.6127 56.4281 40 56.4281Z" stroke="#141335" stroke-miterlimit="10"/>
<path d="M69.8017 11.2251L57.0349 23.9998" stroke="#141335" stroke-miterlimit="10"/>
<path d="M51.7092 0.113403L47.0255 17.5369" stroke="#141335" stroke-miterlimit="10"/>
<path d="M31.9924 5.14014L35.1652 16.9322" stroke="#141335" stroke-miterlimit="10"/>
<path d="M11.8225 9.59998L24.5893 22.3747" stroke="#141335" stroke-miterlimit="10"/>
<path d="M10.1984 30.2361L18.1304 32.3904" stroke="#141335" stroke-miterlimit="10"/>
<path d="M0.113281 48.9446L17.5259 44.2581" stroke="#141335" stroke-miterlimit="10"/>
<path d="M12.6157 65.1966L22.9651 54.8407" stroke="#141335" stroke-miterlimit="10"/>
<path d="M28.2909 78.765L32.9368 61.3036" stroke="#141335" stroke-miterlimit="10"/>
<path d="M47.1766 70.6391L44.8347 61.9084" stroke="#141335" stroke-miterlimit="10"/>
<path d="M68.1775 69.2406L55.4108 56.4659" stroke="#141335" stroke-miterlimit="10"/>
<path d="M73.4278 49.5872L61.8698 46.488" stroke="#141335" stroke-miterlimit="10"/>
<path d="M79.8867 29.9337L62.474 34.5825" stroke="#141335" stroke-miterlimit="10"/>
</g>
<defs>
<clipPath id="clip0_1_401">
<rect width="80" height="78.8406" fill="white"/>
</clipPath>
</defs>
</svg>
